HIERARCHY
ROOT Hips
{
	OFFSET -3.958830 18.904000 13.208200
	CHANNELS 6 Xposition Yposition Zposition Zrotation Yrotation Xrotation 
	JOINT LHipJoint
	{
		OFFSET 0.000000 0.000000 0.000000
		CHANNELS 3 Zrotation Yrotation Xrotation
		JOINT LeftUpLeg
		{
			OFFSET 1.800000 -1.400000 0.085000
			CHANNELS 3 Zrotation Yrotation Xrotation
			JOINT LeftLeg
			{
				OFFSET 2.215000 -6.000000 0.000000
				CHANNELS 3 Zrotation Yrotation Xrotation
				JOINT LeftFoot
				{
					OFFSET 2.500000 -6.900000 0.000000
					CHANNELS 3 Zrotation Yrotation Xrotation
					JOINT LeftToeBase
					{
						OFFSET 0.200000 -0.500000 1.950000
						CHANNELS 3 Zrotation Yrotation Xrotation
						End Site
						{
							OFFSET 0.000000 0.000000 0.000000
						}
					}
				}
			}
		}
	}
	JOINT RHipJoint
	{
		OFFSET 0.000000 0.000000 0.000000
		CHANNELS 3 Zrotation Yrotation Xrotation
		JOINT RightUpLeg
		{
			OFFSET -1.800000 -1.400000 0.085000
			CHANNELS 3 Zrotation Yrotation Xrotation
			JOINT RightLeg
			{
				OFFSET -2.215000 -6.000000 0.000000
				CHANNELS 3 Zrotation Yrotation Xrotation
				JOINT RightFoot
				{
					OFFSET -2.500000 -6.900000 0.000000
					CHANNELS 3 Zrotation Yrotation Xrotation
					JOINT RightToeBase
					{
						OFFSET -0.200000 -0.500000 1.950000
						CHANNELS 3 Zrotation Yrotation Xrotation
						End Site
						{
							OFFSET 0.000000 0.000000 0.000000
						}
					}
				}
			}
		}
	}
	JOINT LowerBack
	{
		OFFSET 0.000000 0.000000 0.000000
		CHANNELS 3 Zrotation Yrotation Xrotation
		JOINT Spine
		{
			OFFSET -0.087000 1.940000 -0.288900
			CHANNELS 3 Zrotation Yrotation Xrotation
			JOINT Spine1
			{
				OFFSET 0.000000 1.950000 0.060000
				CHANNELS 3 Zrotation Yrotation Xrotation
				JOINT Neck
				{
					OFFSET 0.000000 0.000000 0.000000
					CHANNELS 3 Zrotation Yrotation Xrotation
					JOINT Neck1
					{
						OFFSET 0.000000 1.600000 0.340000
						CHANNELS 3 Zrotation Yrotation Xrotation
						JOINT Head
						{
							OFFSET 0.000000 1.667000 -0.240000
							CHANNELS 3 Zrotation Yrotation Xrotation
							End Site
							{
								OFFSET 0.000000 0.000000 0.000000
							}
						}
					}
				}
				JOINT LeftShoulder
				{
					OFFSET 0.000000 0.000000 0.000000
					CHANNELS 3 Zrotation Yrotation Xrotation
					JOINT LeftArm
					{
						OFFSET 2.700000 1.550000 -0.730000
						CHANNELS 3 Zrotation Yrotation Xrotation
						JOINT LeftForeArm
						{
							OFFSET 5.450000 0.000000 0.000000
							CHANNELS 3 Zrotation Yrotation Xrotation
							JOINT LeftHand
							{
								OFFSET 3.450000 0.000000 0.000000
								CHANNELS 3 Zrotation Yrotation Xrotation
								JOINT LeftHandIndex1
								{
									OFFSET 0.750000 0.000000 0.000000
									CHANNELS 3 Zrotation Yrotation Xrotation
									End Site
									{
										OFFSET 0.000000 0.000000 0.000000
									}
								}
							}
						}
					}
				}
				JOINT RightShoulder
				{
					OFFSET 0.000000 0.000000 0.000000
					CHANNELS 3 Zrotation Yrotation Xrotation
					JOINT RightArm
					{
						OFFSET -2.700000 1.550000 -0.730000
						CHANNELS 3 Zrotation Yrotation Xrotation
						JOINT RightForeArm
						{
							OFFSET -5.450000 0.000000 0.000000
							CHANNELS 3 Zrotation Yrotation Xrotation
							JOINT RightHand
							{
								OFFSET -3.450000 0.000000 0.000000
								CHANNELS 3 Zrotation Yrotation Xrotation
								JOINT RightHandIndex1
								{
									OFFSET -0.750000 0.000000 0.000000
									CHANNELS 3 Zrotation Yrotation Xrotation
									End Site
									{
										OFFSET 0.000000 0.000000 0.000000
									}
								}
							}
						}
					}
				}
			}
		}
	}
}
MOTION
Frames: 10
Frame Time: 0.016667
0.695480 16.634440 -2.944090 2.024849 23.083975 -8.301633 -14.613921 13.318225 2.915421 8.672468 -0.596405 -10.894291 -8.048994 6.359824 14.632183 0.336564 3.430477 3.253495 1.032640 0.745270 1.001470 18.372597 -11.977228 3.084485 -16.377402 6.386064 -13.979086 13.385528 -9.408986 31.081322 -0.975947 -5.339031 2.275997 0.031210 -0.792580 0.297000 -5.535471 1.143048 -7.977221 32.293777 -5.728315 24.806963 -25.256021 1.849147 4.028684 11.664768 -0.750928 -16.830767 2.657406 -7.073263 73.971769 -6.982540 -9.684550 -25.495630 -47.397898 -15.146407 4.830470 -38.074719 19.033748 -7.384433 -6.363541 -3.450751 -1.089685 -2.300284 3.163949 0.648110 -0.723430 0.740690 0.134700 21.558475 23.613011 12.606518 52.386008 23.318028 -16.184935 -107.923004 39.902405 -69.060850 2.676080 -1.174872 0.552820 -0.247680 -0.650250 -0.041100 
0.704850 16.630550 -2.958780 2.174806 23.223377 -8.259252 -14.635141 13.379879 2.924825 8.510019 -0.644938 -11.420675 -7.698796 6.319066 15.090437 0.337448 3.390466 3.261406 1.029070 0.742080 0.986360 18.340936 -11.980785 3.074599 -16.378427 6.368513 -14.151894 12.913285 -9.283914 31.320467 -0.966185 -5.305410 2.286373 0.026590 -0.794680 0.297030 -5.471734 1.016610 -7.985075 31.806296 -5.747574 25.469456 -24.655107 1.882040 3.572374 11.499372 -1.261365 -16.709752 1.308398 -6.257843 73.729932 -6.314990 -9.616800 -25.598680 -46.986053 -14.821818 4.782307 -39.074647 18.398255 -7.800237 -6.119532 -4.062497 -1.060296 -2.304344 3.193369 0.650280 -0.730260 0.740180 0.141160 21.547975 23.704558 12.600091 52.163304 22.854079 -16.217978 -108.361663 40.418061 -70.077047 2.686065 -1.166859 0.554780 -0.260040 -0.652640 -0.037460 
0.726480 16.628740 -2.980130 2.176175 23.093457 -8.023698 -14.638777 13.387017 2.923899 8.556638 -0.705229 -12.477101 -7.470188 6.376687 15.867810 0.278704 3.436251 3.236784 0.980430 0.669820 0.979440 18.331852 -12.003308 3.079538 -16.211116 6.507746 -14.563993 12.371504 -9.121287 31.558108 -0.928313 -5.259654 2.295889 0.004540 -0.768080 0.299300 -5.442921 1.034919 -7.996083 31.491940 -5.491124 26.034009 -24.515123 2.256862 3.073506 11.290176 -0.568410 -16.617929 2.701947 -7.120844 72.712677 -6.502080 -9.453620 -25.030410 -46.861651 -15.017870 4.855974 -39.370158 18.298532 -7.786228 -6.525200 -3.813257 -1.131368 -2.366495 3.136063 0.665670 -0.704270 0.714010 0.106950 21.797567 23.373165 12.372468 52.471872 22.491348 -16.398548 -108.253959 40.996432 -70.543993 2.671956 -1.117242 0.515370 -0.249090 -0.608600 -0.063580 
0.751430 16.628610 -2.999450 1.875124 23.069664 -7.938348 -14.651354 13.394950 2.920706 9.008097 -0.712654 -13.781078 -7.364610 6.570979 17.019424 0.210854 3.560187 3.193469 0.907950 0.563970 0.952250 18.313697 -12.016615 3.084727 -15.927694 6.539946 -14.682508 12.059455 -8.949085 31.247698 -0.877182 -5.169797 2.338937 -0.026160 -0.729480 0.274200 -5.386946 1.013920 -8.015199 31.281542 -5.623709 27.024228 -24.087829 2.455401 2.586842 10.938622 -0.200796 -16.445135 3.286777 -7.520038 70.884539 -5.592100 -9.310090 -25.364820 -45.952315 -15.116998 5.078666 -40.729370 17.804205 -8.089523 -6.492357 -3.875381 -1.177555 -2.440326 3.057048 0.704730 -0.684980 0.669240 0.073560 21.607087 23.238496 12.187661 52.604670 22.318691 -16.659061 -107.715476 42.167270 -71.197992 2.654973 -1.028599 0.439740 -0.219460 -0.555520 -0.103270 
0.781770 16.625950 -3.018460 1.048385 22.978319 -7.578374 -14.663604 13.343779 2.931673 9.833703 -0.692478 -15.359413 -7.553173 6.758799 17.709082 0.179314 3.673936 3.146848 0.831230 0.453810 0.920050 18.305954 -11.965741 3.144114 -15.620231 6.777677 -15.095679 12.663680 -9.002049 30.646778 -0.832934 -5.126166 2.362257 -0.074810 -0.692240 0.269630 -5.332420 1.016808 -8.061215 31.740590 -5.645913 27.643208 -23.629356 2.834108 1.806012 10.683731 0.036693 -16.075683 3.885810 -8.120536 68.501316 -4.990210 -9.289130 -25.421910 -44.468468 -14.413891 5.080497 -42.440497 17.154661 -8.535792 -6.340769 -4.058669 -1.204959 -2.529543 3.010811 0.719960 -0.660770 0.624840 0.039930 20.616240 22.601106 11.958986 53.094704 22.158995 -16.664219 -106.825641 42.424178 -70.512395 2.644879 -0.993466 0.391190 -0.219260 -0.505030 -0.128640 
0.803700 16.624070 -3.040170 -0.094475 22.741889 -6.618834 -14.690284 13.270187 2.998927 10.826230 -0.690994 -17.702818 -7.886817 6.949124 18.221265 0.167622 3.789343 3.112257 0.753710 0.352440 0.887880 18.292623 -11.835559 3.240442 -14.970391 7.211320 -16.218735 13.470458 -9.038385 30.006626 -0.778764 -5.056898 2.409560 -0.120540 -0.628950 0.267400 -5.232489 0.942827 -8.147545 32.148265 -5.262916 27.807673 -22.771776 3.524259 0.637103 10.504596 0.731123 -15.675116 5.389228 -9.146050 64.848868 -5.820570 -8.789740 -23.605760 -43.451931 -13.563603 5.011410 -43.590295 16.822166 -8.772941 -6.496842 -4.115763 -1.225486 -2.633871 2.965319 0.698350 -0.604190 0.570010 0.026280 19.816131 21.677178 11.654128 53.151277 21.816488 -16.524449 -105.736351 42.155433 -68.884852 2.632107 -1.000565 0.347480 -0.209860 -0.467450 -0.140750 
0.807160 16.627670 -3.073050 -1.110337 22.215396 -5.738647 -14.746450 13.268319 3.081465 11.393764 -0.674169 -20.240362 -7.523898 7.033661 19.227739 0.168149 3.859477 3.080860 0.705390 0.288470 0.872020 18.249667 -11.685171 3.320463 -14.039760 7.555038 -17.263046 13.847600 -8.832708 29.196978 -0.723601 -4.899034 2.478453 -0.152180 -0.595790 0.275180 -5.036257 0.697610 -8.233549 31.612670 -4.889711 28.879088 -21.079335 4.253487 -0.506261 10.217913 1.294585 -15.329627 6.164372 -9.747505 61.023723 -6.621040 -8.175260 -22.491580 -42.399392 -13.057533 5.051488 -45.574190 16.146733 -9.268893 -5.787911 -4.572944 -1.202210 -2.732605 2.967908 0.671690 -0.563460 0.534320 0.017680 19.290565 21.222307 11.287707 52.422202 21.669206 -16.512759 -105.083641 42.043818 -67.841953 2.636729 -1.025307 0.328820 -0.225740 -0.451660 -0.149310 
0.783050 16.644770 -3.116360 -1.552851 20.973560 -5.338976 -14.873003 13.411267 3.191090 11.728772 -0.469665 -22.521789 -7.050595 7.320837 20.988897 0.196018 4.011298 2.988006 0.717180 0.295040 0.910240 18.129436 -11.466005 3.350376 -13.186930 7.859194 -17.660298 13.843617 -8.359419 28.260148 -0.690000 -4.658520 2.555351 -0.156280 -0.639980 0.285760 -4.593783 0.079109 -8.325356 28.828319 -4.039685 32.075577 -18.069441 5.550685 -2.112718 9.820293 2.258806 -15.336925 7.617015 -10.796435 58.619562 -6.546980 -7.884730 -23.607310 -42.037333 -13.325695 5.105891 -47.425145 15.488110 -9.512416 -5.743723 -3.827348 -1.223116 -2.777279 2.981437 0.669690 -0.573880 0.547340 -0.001490 19.845069 21.490501 10.845741 49.723629 21.123150 -17.369302 -104.422269 41.574522 -66.005374 2.666035 -1.078915 0.345130 -0.273330 -0.473300 -0.169760 
0.749990 16.649170 -3.162700 -2.360913 19.149851 -4.650736 -15.019989 13.528829 3.337444 12.331041 -0.086994 -25.624495 -6.364234 7.781759 23.350525 0.191428 4.364450 2.854837 0.654340 0.214010 0.873050 18.022407 -11.140220 3.395298 -11.775951 8.487932 -18.640709 13.697405 -7.896011 27.773508 -0.629795 -4.422630 2.668525 -0.187360 -0.587390 0.277430 -4.111120 -0.681947 -8.458100 26.157550 -3.174896 35.003609 -14.731982 7.121957 -3.508717 9.220007 2.124693 -15.513333 6.478203 -10.341364 56.090007 -6.138710 -7.521700 -23.531120 -40.202255 -13.628606 5.271264 -51.183917 14.868813 -10.510971 -6.336888 -4.097284 -1.342769 -2.884098 2.921223 0.686810 -0.541480 0.513730 -0.006020 19.420893 22.842593 10.799584 46.908528 20.971889 -18.327811 -104.204954 40.412304 -64.064675 2.659223 -1.103079 0.291810 -0.245320 -0.436440 -0.185890 
0.707010 16.646920 -3.209430 -3.692471 17.559608 -4.243830 -15.212529 13.655242 3.525777 13.252515 0.543027 -29.268299 -5.168812 8.277227 26.204557 0.278182 4.759141 2.684033 0.651650 0.204780 0.886680 17.901406 -10.729579 3.390873 -9.689682 8.976513 -18.999133 13.408392 -7.331092 27.031126 -0.593481 -4.127889 2.788637 -0.213240 -0.609370 0.284660 -3.556654 -1.610870 -8.602381 23.698401 -2.233925 38.086537 -10.974255 9.069019 -4.870114 8.673377 1.818778 -15.874880 5.201445 -10.214512 53.812776 -5.776860 -7.370170 -23.830340 -37.617628 -13.609615 5.438339 -55.525142 14.253966 -12.118591 -7.806683 -5.129622 -1.492578 -2.922129 2.955664 0.673020 -0.549880 0.519110 -0.006010 18.196537 24.375168 10.955317 43.947243 20.583471 -19.200627 -105.149557 38.050665 -62.249390 2.700342 -1.220080 0.313340 -0.288030 -0.461620 -0.186440 
